<svg>
		<defs>
		   <symbol id="clock" xmlns="http://www.w3.org/2000/svg" viewBox="0 0 612 612"><path d="M587.572 186.881c-32.266-75.225-87.096-129.934-162.949-162.285-37.912-16.169-77.631-24.428-119.126-24.428-41.488 0-80.914 8.181-118.784 24.428-75.225 32.265-130.298 86.939-162.621 162.285-16.197 37.748-24.092 77.295-24.092 118.783 0 41.496 7.895 81.371 24.092 119.127 32.323 75.346 87.403 130.348 162.621 162.621 37.877 16.247 77.295 24.42 118.784 24.42 41.489 0 81.214-8.259 119.12-24.42 75.853-32.352 130.683-87.403 162.956-162.621 16.246-37.877 24.427-77.631 24.427-119.127 0-41.488-8.174-80.907-24.428-118.783zm-48.848 253.972c-24.021 41.195-56.929 73.876-98.375 98.039-41.195 24.021-86.332 36.135-134.845 36.135-36.47 0-71.27-7.024-104.4-21.415-33.129-14.384-61.733-33.294-85.661-57.215-23.928-23.928-42.973-52.811-57.214-85.997-14.199-33.065-21.08-68.258-21.08-104.735 0-48.52 11.921-93.428 35.807-134.509 23.971-41.231 56.886-73.947 98.039-98.04 41.146-24.092 85.99-36.142 134.502-36.142 48.52 0 93.649 12.121 134.845 36.142 41.446 24.164 74.283 56.879 98.375 98.039 24.092 41.153 36.135 85.99 36.135 134.509 0 48.521-11.964 93.735-36.128 135.189zM324.906 302.988v-173.329c0-10.372-9.037-18.738-19.41-18.738-9.701 0-18.403 8.366-18.403 18.738v176.005c0 .336.671 1.678.671 2.678-.671 6.024 1.007 11.043 5.019 15.062l100.053 100.046c6.695 6.695 19.073 6.695 25.763 0 7.694-7.695 7.188-18.86 0-26.099l-93.693-94.363z"/></symbol>
			<symbol id="phone" xmlns="http://www.w3.org/2000/svg" viewBox="0 0 60 60"><path d="M35.5 30.995c-.553 0-1 .447-1 1v14.005h-30v-38h30v13.998c0 .553.447 1 1 1s1-.447 1-1v-17.593c0-2.428-1.977-4.405-4.405-4.405h-25.19c-2.428 0-4.405 1.977-4.405 4.405v51.189c0 2.429 1.977 4.406 4.405 4.406h25.189c2.429 0 4.405-1.977 4.405-4.405v-23.6c.001-.553-.446-1-.999-1zm-28.595-28.995h25.189c1.327 0 2.406 1.079 2.406 2.405v1.595h-30v-1.595c0-1.326 1.079-2.405 2.405-2.405zm25.19 56h-25.19c-1.326 0-2.405-1.079-2.405-2.405v-7.595h30v7.595c0 1.326-1.079 2.405-2.405 2.405zM19.5 49c-2.206 0-4 1.794-4 4s1.794 4 4 4 4-1.794 4-4-1.794-4-4-4zm0 6c-1.103 0-2-.897-2-2s.897-2 2-2 2 .897 2 2-.897 2-2 2zM15.5 5h4c.553 0 1-.447 1-1s-.447-1-1-1h-4c-.553 0-1 .447-1 1s.447 1 1 1zM22.5 5h1c.553 0 1-.447 1-1s-.447-1-1-1h-1c-.553 0-1 .447-1 1s.447 1 1 1zM56.5 26h-35.586l10.293-10.293c.391-.391.391-1.023 0-1.414s-1.023-.391-1.414 0l-11.999 11.999c-.093.093-.166.204-.217.327-.101.244-.101.52 0 .764.051.123.124.234.217.327l11.999 11.999c.195.193.451.291.707.291s.512-.098.707-.293c.391-.391.391-1.023 0-1.414l-10.293-10.293h35.586c.553 0 1-.447 1-1s-.447-1-1-1z"/></symbol>
			<symbol id="user" xmlns="http://www.w3.org/2000/svg" viewBox="0 0 294.812 294.812"><path d="M251.654 43.164c-57.479-57.48-151.006-57.48-208.485 0-20.167 20.167-33.962 45.503-39.895 73.27-5.776 27.037-3.884 55.049 5.471 81.006 1.124 3.117 4.563 4.733 7.679 3.61 3.118-1.124 4.734-4.562 3.61-7.679-8.595-23.849-10.333-49.586-5.025-74.431 5.447-25.496 18.119-48.766 36.645-67.292 52.801-52.801 138.714-52.801 191.515 0 25.145 25.146 39.221 58.571 39.634 94.12.413 35.484-12.811 69.176-37.234 94.868l-.861.916c-.506.541-1.011 1.083-1.539 1.611-52.801 52.801-138.714 52.801-191.515 0-.281-.281-.555-.567-.826-.853-.014-.554-.026-1.1-.026-1.638 0-1.208.023-2.411.067-3.61l.065-1.198c.039-.797.076-1.594.134-2.387.035-.473.086-.941.128-1.412.063-.715.122-1.43.2-2.141.055-.502.127-1 .19-1.5.085-.675.166-1.352.266-2.024.076-.512.166-1.019.25-1.528.107-.655.211-1.31.332-1.961.095-.515.204-1.025.308-1.537.129-.639.256-1.279.398-1.914.115-.515.243-1.027.366-1.539.15-.625.299-1.25.461-1.87.135-.514.281-1.024.423-1.535.171-.612.341-1.225.524-1.833.153-.51.317-1.016.479-1.522.192-.601.384-1.203.587-1.799.172-.503.352-1.003.532-1.503.213-.592.427-1.184.651-1.772.19-.497.387-.989.585-1.482.233-.581.468-1.162.712-1.738.208-.49.422-.976.638-1.462.253-.571.509-1.14.773-1.705.225-.481.455-.959.688-1.436.274-.561.551-1.121.835-1.676.241-.47.486-.938.735-1.404.294-.552.593-1.102.898-1.649.257-.46.517-.918.781-1.373.314-.541.633-1.079.958-1.615.273-.45.549-.898.829-1.344.334-.53.673-1.057 1.017-1.58.288-.439.578-.876.873-1.31.353-.52.714-1.034 1.078-1.547.303-.427.606-.853.916-1.274.373-.508.754-1.011 1.137-1.511.317-.414.633-.828.957-1.237.393-.497.795-.988 1.198-1.477.329-.4.658-.8.994-1.195.414-.486.837-.965 1.261-1.443.342-.386.682-.773 1.03-1.153.434-.474.877-.939 1.321-1.404.354-.372.706-.745 1.066-1.112.455-.462.92-.914 1.384-1.368.364-.355.725-.714 1.095-1.064.478-.452.967-.893 1.454-1.335.372-.337.739-.678 1.116-1.01.503-.443 1.019-.873 1.532-1.306.376-.317.748-.639 1.129-.951.531-.434 1.075-.855 1.617-1.279.378-.295.75-.597 1.132-.887.571-.433 1.154-.851 1.736-1.271.367-.266.727-.538 1.099-.799.642-.451 1.299-.886 1.954-1.323l.964-.65c.854-.555 1.723-1.092 2.598-1.622l.405-.252c1.012-.606 2.038-1.194 3.076-1.766l1.079-.569c.689-.368 1.376-.739 2.077-1.091.449-.226.909-.438 1.362-.657.572-.277 1.142-.557 1.721-.824 10.875 10.388 25.382 16.269 40.44 16.269 15.058 0 29.566-5.882 40.441-16.271 21.229 9.825 38.604 27.454 48.037 48.892 1.334 3.032 4.873 4.411 7.908 3.076 3.033-1.335 4.41-4.876 3.075-7.908-10.318-23.45-28.281-42.189-51.018-53.501 6.597-9.677 10.166-21.104 10.166-32.896 0-32.317-26.292-58.609-58.609-58.609-3.313 0-6 2.687-6 6s2.687 6 6 6c25.701 0 46.609 20.909 46.609 46.609 0 11.492-4.271 22.558-12.025 31.157l-.003.003c-8.854 9.818-21.458 15.449-34.582 15.449s-25.729-5.631-34.582-15.449l-.005-.004c-7.753-8.602-12.023-19.665-12.023-31.155 0-12.544 4.911-24.312 13.829-33.134 2.356-2.331 2.376-6.13.045-8.485-2.33-2.357-6.129-2.375-8.485-.046-11.213 11.09-17.389 25.887-17.389 41.661 0 11.78 3.56 23.199 10.146 32.871l-.174.091c-.468.234-.925.482-1.389.721-.711.368-1.424.734-2.125 1.117-.496.27-.981.554-1.472.831-.655.371-1.311.74-1.957 1.123-.501.298-.994.606-1.49.911-.62.382-1.24.763-1.851 1.156-.499.321-.989.651-1.482.979-.593.395-1.185.792-1.769 1.198-.491.342-.976.691-1.461 1.04-.57.411-1.138.824-1.699 1.245-.481.361-.956.727-1.43 1.095-.55.427-1.096.857-1.636 1.294-.468.378-.932.761-1.394 1.146-.531.444-1.058.893-1.58 1.347-.453.393-.903.789-1.349 1.19-.515.463-1.023.931-1.528 1.403-.436.407-.871.815-1.301 1.23-.499.482-.99.971-1.48 1.462-.418.419-.836.837-1.246 1.262-.485.503-.961 1.015-1.436 1.527-.397.428-.797.854-1.187 1.289-.475.528-.937 1.067-1.401 1.604-.373.432-.749.86-1.115 1.297-.471.563-.927 1.137-1.386 1.709-.341.426-.689.846-1.024 1.277-.482.62-.948 1.252-1.416 1.882-.294.396-.596.785-.884 1.185-.592.82-1.165 1.652-1.733 2.488l-.455.655c-.707 1.056-1.394 2.124-2.063 3.204l-.674 1.129c-.433.719-.868 1.437-1.285 2.166-.26.455-.506.918-.759 1.377-.365.66-.732 1.318-1.082 1.986-.26.495-.506.996-.759 1.495-.326.644-.653 1.287-.966 1.938-.249.518-.486 1.042-.727 1.563-.296.643-.593 1.285-.877 1.934-.234.535-.458 1.075-.683 1.614-.271.647-.54 1.294-.798 1.946-.217.548-.425 1.099-.633 1.65-.246.654-.489 1.309-.723 1.968-.198.559-.39 1.121-.58 1.684-.223.661-.44 1.324-.65 1.991-.179.567-.352 1.136-.522 1.706-.2.673-.393 1.348-.58 2.026-.158.572-.313 1.145-.462 1.721-.177.685-.345 1.373-.509 2.063-.137.576-.273 1.151-.4 1.729-.154.699-.297 1.402-.437 2.106-.115.576-.232 1.152-.338 1.731-.131.718-.249 1.44-.366 2.163-.092.57-.189 1.139-.272 1.711-.109.746-.201 1.496-.295 2.246-.069.556-.145 1.111-.206 1.669-.086.786-.152 1.577-.221 2.368-.046.527-.101 1.052-.139 1.582-.064.883-.106 1.77-.149 2.658l-.07 1.321c-.048 1.332-.075 2.669-.075 4.011 0 1.449.049 2.819.108 4.332.014.35.063.69.133 1.022l.015.078c.074.327.178.641.303.945l.036.09c.129.3.283.586.457.858l.065.101c.179.267.378.518.595.752l.043.055.792.843c.598.64 1.196 1.278 1.82 1.901 28.74 28.74 66.491 43.11 104.243 43.11s75.503-14.37 104.243-43.11c.624-.623 1.222-1.262 1.82-1.901l.792-.843c26.589-27.971 40.985-64.647 40.536-103.275-.447-38.705-15.771-75.095-43.145-102.469z"/></symbol>
         <symbol id="right-arrow" xmlns="http://www.w3.org/2000/svg" viewBox="0 0 476.213 476.213"><path d="M345.606 107.5l-21.212 21.213 94.393 94.394h-418.787v30h418.787l-94.393 94.393 21.212 21.213 130.607-130.607z"/></symbol>
		   <symbol id='box' xmlns="http://www.w3.org/2000/svg" viewBox="0 0 512 512"><path d="M491.729 112.971l-232.468-112.226c-2.061-.994-4.461-.994-6.521 0l-232.469 112.226c-2.592 1.251-4.239 3.876-4.239 6.754v272.549c0 2.878 1.647 5.503 4.239 6.754l232.468 112.226c1.03.497 2.146.746 3.261.746s2.23-.249 3.261-.746l232.468-112.226c2.592-1.251 4.239-3.876 4.239-6.754v-272.548c0-2.88-1.648-5.503-4.239-6.755zm-235.729-97.143l215.217 103.897-62.387 30.118c-.395-.301-.812-.579-1.27-.8l-213.755-103.19 62.195-30.025zm-79.133 38.505l214.904 103.746-44.015 21.249-214.815-103.704 43.926-21.291zm219.932 117.974v78.546l-41.113 19.848v-78.546l41.113-19.848zm84.169 215.261l-217.468 104.982v-255.892l51.873-25.042c3.73-1.801 5.294-6.284 3.493-10.015-1.801-3.729-6.284-5.295-10.015-3.493l-52.851 25.515-20.796-10.04c-3.731-1.803-8.214-.237-10.015 3.493-1.801 3.73-.237 8.214 3.493 10.015l19.818 9.567v255.892l-217.468-104.984v-255.892l165.6 79.945c1.051.508 2.162.748 3.255.748 2.788 0 5.466-1.562 6.759-4.241 1.801-3.73.237-8.214-3.493-10.015l-162.37-78.386 74.505-35.968 225.294 108.763.104.132v89.999c0 2.581 1.327 4.98 3.513 6.353 1.214.762 2.599 1.147 3.988 1.147 1.112 0 2.227-.247 3.26-.746l56.113-27.089c2.592-1.251 4.239-3.875 4.239-6.754v-90.495l69.169-33.392v255.893zM92.926 358.479l-34.115-16.469c-3.732-1.803-8.214-.237-10.015 3.493-1.801 3.73-.237 8.214 3.493 10.015l34.115 16.469c1.051.508 2.162.748 3.255.748 2.788 0 5.466-1.562 6.759-4.241 1.802-3.731.238-8.213-3.492-10.015zM124.323 338.042l-65.465-31.604c-3.731-1.801-8.214-.237-10.015 3.494-1.8 3.73-.236 8.214 3.494 10.015l65.465 31.604c1.051.507 2.162.748 3.255.748 2.788 0 5.466-1.562 6.759-4.241 1.801-3.732.237-8.216-3.493-10.016z"/></symbol>
         <symbol id="calendar" xmlns="http://www.w3.org/2000/svg" viewBox="0 0 512 512"><path d="M462 44h-47.667v-14c0-16.542-13.458-30-30-30s-30 13.458-30 30v14h-168v-14c0-16.542-13.458-30-30-30s-30 13.458-30 30v14.37c-.85-.235-1.741-.37-2.666-.37h-39.844c-27.57 0-50 22.43-50 50v170.333c0 5.523 4.478 10 10 10s10-4.477 10-10v-117.333h360.51c5.522 0 10-4.477 10-10s-4.478-10-10-10h-360.51v-33c0-16.542 13.458-30 30-30h39.844c.925 0 1.816-.136 2.666-.37v12.87c0 16.542 13.458 30 30 30s30-13.458 30-30v-12.5h168v12.5c0 16.542 13.458 30 30 30s30-13.458 30-30v-12.5h47.667c16.542 0 30 13.458 30 30v379.994c0 9.928-8.077 18.006-18.006 18.006s-18.006-8.078-18.006-18.006v-25.869c0-5.523-4.478-10-10-10h-116.321c-5.522 0-10 4.477-10 10s4.478 10 10 10h106.321v15.869c0 6.511 1.648 12.643 4.545 18.006h-402.533c-9.925 0-18-8.075-18-18v-15.875h223.825c5.522 0 10-4.477 10-10s-4.478-10-10-10h-99.916c17.474-15.049 28.57-37.309 28.57-62.125 0-45.215-36.785-82-82-82s-82 36.785-82 82c0 24.816 11.096 47.076 28.57 62.125h-27.049c-5.522 0-10 4.477-10 10v25.875c0 20.953 17.047 38 38 38h435.994c20.956 0 38.006-17.049 38.006-38.006v-379.994c0-27.57-22.43-50-50-50zm-295.667 32.5c0 5.514-4.486 10-10 10s-10-4.486-10-10v-46.5c0-5.514 4.486-10 10-10s10 4.486 10 10v46.5zm228 0c0 5.514-4.486 10-10 10s-10-4.486-10-10v-46.5c0-5.514 4.486-10 10-10s10 4.486 10 10v46.5zm-365.854 299.5c0-34.187 27.813-62 62-62s62 27.813 62 62-27.813 62-62 62-62-27.813-62-62zM468.309 129.93c-1.859-1.86-4.439-2.93-7.069-2.93-2.631 0-5.21 1.07-7.07 2.93-1.86 1.86-2.93 4.44-2.93 7.07s1.069 5.21 2.93 7.07c1.861 1.86 4.439 2.93 7.07 2.93 2.63 0 5.21-1.07 7.069-2.93 1.86-1.86 2.931-4.44 2.931-7.07s-1.07-5.21-2.931-7.07zM298.649 441.05c-1.859-1.86-4.439-2.92-7.069-2.92s-5.21 1.06-7.07 2.92c-1.86 1.87-2.93 4.44-2.93 7.07 0 2.64 1.069 5.21 2.93 7.08 1.86 1.86 4.44 2.92 7.07 2.92s5.21-1.06 7.069-2.92c1.86-1.87 2.931-4.45 2.931-7.08s-1.07-5.2-2.931-7.07zM226.245 304c-20.953 0-38 17.047-38 38s17.047 38 38 38 38-17.047 38-38-17.047-38-38-38zm0 56c-9.925 0-18-8.075-18-18s8.075-18 18-18 18 8.075 18 18-8.075 18-18 18zM319.578 304c-20.953 0-38 17.047-38 38s17.047 38 38 38 38-17.047 38-38-17.047-38-38-38zm0 56c-9.925 0-18-8.075-18-18s8.075-18 18-18 18 8.075 18 18-8.075 18-18 18zM412.912 304c-20.953 0-38 17.047-38 38s17.047 38 38 38 38-17.047 38-38-17.047-38-38-38zm0 56c-9.925 0-18-8.075-18-18s8.075-18 18-18 18 8.075 18 18-8.075 18-18 18zM132.912 200c-20.953 0-38 17.047-38 38s17.047 38 38 38 38-17.047 38-38-17.047-38-38-38zm0 56c-9.925 0-18-8.075-18-18s8.075-18 18-18 18 8.075 18 18-8.075 18-18 18zM319.578 200c-20.953 0-38 17.047-38 38s17.047 38 38 38 38-17.047 38-38-17.047-38-38-38zm0 56c-9.925 0-18-8.075-18-18s8.075-18 18-18 18 8.075 18 18-8.075 18-18 18zM412.912 200c-20.953 0-38 17.047-38 38s17.047 38 38 38 38-17.047 38-38-17.047-38-38-38zm0 56c-9.925 0-18-8.075-18-18s8.075-18 18-18 18 8.075 18 18-8.075 18-18 18zM226.245 200c-20.953 0-38 17.047-38 38s17.047 38 38 38 38-17.047 38-38-17.047-38-38-38zm0 56c-9.925 0-18-8.075-18-18s8.075-18 18-18 18 8.075 18 18-8.075 18-18 18zM126.104 351.629c-3.906-3.905-10.236-3.905-14.143 0l-32.566 32.567-11.129-11.129c-3.906-3.905-10.236-3.905-14.143 0-3.905 3.905-3.905 10.237 0 14.143l18.201 18.199c1.876 1.875 4.419 2.929 7.071 2.929s5.195-1.054 7.071-2.929l39.638-39.638c3.905-3.905 3.905-10.237 0-14.142z"/></symbol>
			<symbol id="layer" xmlns="http://www.w3.org/2000/svg" viewBox="0 0 512 512"><path d="M498.112 352.689l-77.223-37.278 77.223-37.279c18.518-8.94 18.515-35.326.001-44.261l-77.222-37.28 77.222-37.279c18.519-8.94 18.509-35.327 0-44.26l-114.585-55.318c-3.718-1.796-8.186-.235-9.981 3.481-1.794 3.717-.235 8.186 3.482 9.981l114.586 55.317c7.267 3.509 7.275 13.824 0 17.337-8.943 4.317-222.13 107.232-231.43 111.723-2.66 1.282-5.71 1.282-8.369 0-7.277-3.513-226.515-109.349-231.43-111.723-7.268-3.509-7.276-13.824 0-17.337l231.429-111.722c2.659-1.285 5.71-1.284 8.37-.001l85.395 41.225c3.718 1.796 8.186.234 9.981-3.481 1.795-3.717.236-8.186-3.481-9.981l-85.397-41.226c-6.789-3.276-14.576-3.277-21.366.001l-231.43 111.723c-18.52 8.939-18.51 35.326 0 44.26l77.222 37.279-77.222 37.28c-18.522 8.939-18.509 35.326 0 44.26l77.223 37.28-77.223 37.278c-18.521 8.942-18.507 35.327 0 44.261l231.431 111.724c6.785 3.274 14.576 3.277 21.366-.001l93.769-45.267c3.717-1.795 5.276-6.263 3.481-9.981-1.794-3.717-6.263-5.279-9.981-3.481l-93.768 45.266c-2.66 1.285-5.712 1.284-8.37.001l-231.431-111.722c-7.268-3.509-7.276-13.824 0-17.337l87.917-42.441 137.015 66.143c6.79 3.278 14.578 3.279 21.367 0l137.015-66.143 87.916 42.44c7.268 3.508 7.277 13.824 0 17.337l-106.211 51.272c-3.717 1.795-5.276 6.263-3.482 9.981 1.795 3.717 6.263 5.279 9.981 3.481l106.211-51.272c18.52-8.939 18.507-35.325-.001-44.26zm-237.928 23.702c-2.66 1.283-5.71 1.283-8.369 0l-231.43-111.722c-7.268-3.509-7.277-13.824 0-17.337l87.916-42.443 137.016 66.144c6.79 3.279 14.578 3.279 21.367 0l137.016-66.144 87.916 42.443c7.267 3.509 7.276 13.824-.001 17.337l-231.431 111.722z"/></symbol>
			<symbol id="sketch" xmlns="http://www.w3.org/2000/svg" viewBox="0 0 511.999 511.999"><path d="M453.034 361.322c-2.808-1.164-6.04-.521-8.19 1.628l-82.126 82.126c-2.149 2.15-2.792 5.382-1.628 8.19 1.162 2.809 3.904 4.639 6.943 4.639h82.126c4.151 0 7.515-3.364 7.515-7.515v-82.126c-.001-3.039-1.832-5.779-4.64-6.942zm-66.861 81.554l56.469-56.469v56.469h-56.469zM507.361 240.867c-2.808-1.164-6.04-.521-8.19 1.628l-22.507 22.507v-153.031c0-4.151-3.365-7.515-7.515-7.515h-57.741l20.96-20.96.009-.01 20.196-20.196c4.327-4.327 6.71-10.083 6.71-16.203s-2.383-11.874-6.71-16.203l-23.354-23.354c-4.327-4.327-10.083-6.71-16.203-6.71s-11.875 2.383-16.203 6.71l-20.206 20.206-24.416 24.416-52.303 52.303h-233.268v-74.345c0-4.151-3.365-7.515-7.515-7.515-32.59.002-59.105 26.515-59.105 59.107v319.186c0 .555.064 1.095.178 1.615 1.038 13.829 7.021 26.678 17.02 36.432 10.688 10.424 24.797 16.165 39.729 16.165h229.638l-43.249 43.249c-2.149 2.15-2.792 5.381-1.629 8.19 1.163 2.808 3.904 4.639 6.943 4.639h255.855c4.15 0 7.515-3.364 7.515-7.515v-255.853c0-3.039-1.832-5.78-4.639-6.943zm-99.918-222.708c3.072-3.074 8.077-3.074 11.149 0l23.355 23.355c3.074 3.073 3.074 8.076 0 11.15l-14.891 14.892-34.506-34.505 14.893-14.892zm-25.521 25.52l34.505 34.504-13.789 13.789-34.503-34.504 13.787-13.789zm115.05 288.573h-13.865c-4.151 0-7.515 3.364-7.515 7.515s3.364 7.515 7.515 7.515h13.865v22.646h-13.865c-4.151 0-7.515 3.364-7.515 7.515s3.364 7.515 7.515 7.515h13.865v22.645h-13.865c-4.151 0-7.515 3.364-7.515 7.515s3.364 7.515 7.515 7.515h13.865v22.646h-13.865c-4.151 0-7.515 3.365-7.515 7.515 0 4.151 3.364 7.515 7.515 7.515h13.865v35.842h-230.2l75.908-75.907c2.935-2.936 2.935-7.693 0-10.628-.337-.337-.699-.629-1.078-.889-2.926-2.004-6.952-1.709-9.551.889l-30.456 30.456h-244.667c-22.792 0-41.14-17.794-41.862-40.545.043-1.428.154-2.844.332-4.244l.003-.024c.084-.665.185-1.327.3-1.985l.04-.225c.105-.587.223-1.171.352-1.753l.112-.485c.114-.492.237-.981.369-1.468l.224-.788c.11-.382.224-.763.345-1.14.121-.377.25-.75.381-1.123l.279-.781c.183-.492.377-.979.577-1.462l.172-.419c.257-.6.524-1.193.806-1.779l.035-.075c5.878-12.164 17.183-21.233 30.75-24.047l.114-.025c.622-.127 1.25-.236 1.882-.337l.317-.054c.571-.087 1.148-.155 1.725-.22l.486-.059c.557-.056 1.119-.093 1.681-.128l.534-.039c.736-.037 1.478-.056 2.223-.056 4.15 0 7.515-3.364 7.515-7.515v-54.489c0-4.151-3.365-7.515-7.515-7.515-4.15 0-7.515 3.364-7.515 7.515v47.447c-12.69 1.605-24.469 7.265-33.757 16.335-.977.954-1.903 1.946-2.805 2.954v-279.841c0-21.741 15.826-39.858 36.561-43.436v226.48299999999998c0 4.15 3.365 7.515 7.515 7.515 4.15 0 7.515-3.365 7.515-7.515v-145.263h218.24l-41.544 41.544c-2.935 2.936-2.935 7.693 0 10.628 2.935 2.934 7.693 2.934 10.627 0l54.373-54.373.005-.005 49.185-49.185 34.503 34.505-4.048 4.048-.01.009-151.528 151.53-34.504-34.504 29.868-29.868c2.935-2.936 2.935-7.693 0-10.628-2.935-2.934-7.693-2.934-10.627 0l-35.183 35.182c-.188.188-.364.387-.529.591l-.156.212-.307.431-.157.263-.236.427-.135.287-.186.447-.065.156-14.641 41.475-9.982 28.279c-.132.376-.227.758-.298 1.143h-24.992c-4.15 0-7.515 3.364-7.515 7.515s3.365 7.515 7.515 7.515h208.114c4.151 0 7.515-3.364 7.515-7.515s-3.364-7.515-7.515-7.515h-149.313l45.83-16.178.112-.047c.178-.066.353-.14.526-.219l.205-.095c.18-.09.357-.189.531-.295l.169-.1c.181-.116.357-.243.53-.377l.13-.096c.209-.168.414-.349.608-.543l154.644-154.643h65.255v160.546l-107.496 107.497c-2.935 2.936-2.935 7.693 0 10.628.183.183.374.355.571.516 1.378 1.123 3.061 1.685 4.743 1.685s3.366-.562 4.743-1.685c.197-.16.388-.333.571-.516l.003-.003 132.204-132.205v66.302zm-274.295-66.556l-21.526 7.599-14.342-14.342 7.599-21.526 28.269 28.269z"/></symbol>
			<symbol id="truck" xmlns="http://www.w3.org/2000/svg" viewBox="0 0 512 512"><path d="M119.467 337.067c-28.237 0-51.2 22.963-51.2 51.2 0 28.237 22.963 51.2 51.2 51.2s51.2-22.963 51.2-51.2c0-28.237-22.964-51.2-51.2-51.2zm0 85.333c-18.825 0-34.133-15.309-34.133-34.133 0-18.825 15.309-34.133 34.133-34.133s34.133 15.309 34.133 34.133c0 18.824-15.309 34.133-34.133 34.133zM409.6 337.067c-28.237 0-51.2 22.963-51.2 51.2 0 28.237 22.963 51.2 51.2 51.2 28.237 0 51.2-22.963 51.2-51.2 0-28.237-22.963-51.2-51.2-51.2zm0 85.333c-18.825 0-34.133-15.309-34.133-34.133 0-18.825 15.309-34.133 34.133-34.133 18.825 0 34.133 15.309 34.133 34.133 0 18.824-15.308 34.133-34.133 34.133zM510.643 289.784l-76.8-119.467c-1.57-2.441-4.275-3.917-7.177-3.917h-93.866c-4.719 0-8.533 3.823-8.533 8.533v213.333c0 4.719 3.814 8.533 8.533 8.533h34.133v-17.067h-25.6v-196.265h80.674l72.926 113.442v82.825h-42.667v17.066h51.2c4.719 0 8.533-3.814 8.533-8.533v-93.867c.001-1.63-.468-3.243-1.356-4.616zM375.467 277.333v-59.733h68.267v-17.067h-76.8c-4.719 0-8.533 3.823-8.533 8.533v76.8c0 4.719 3.814 8.533 8.533 8.533h128v-17.067h-119.467zM332.8 106.667h-324.267c-4.71 0-8.533 3.823-8.533 8.533v273.067c0 4.719 3.823 8.533 8.533 8.533h68.267v-17.067h-59.733v-256h307.2v256h-162.134v17.067h170.667c4.719 0 8.533-3.814 8.533-8.533v-273.067c0-4.71-3.814-8.533-8.533-8.533zM8.533 345.6h51.2v17.067h-51.2zM179.2 345.6h145.067v17.067h-145.067zM469.333 345.6h34.133v17.067h-34.133zM34.133 140.8h298.667v17.067h-298.667zM110.933 379.733h17.067v17.067h-17.067zM401.067 379.733h17.067v17.067h-17.067zM34.133 72.533h119.467v17.067h-119.467zM0 72.533h17.067v17.067h-17.067z"/></symbol>
			<symbol id="warranty" xmlns="http://www.w3.org/2000/svg" viewBox="0 0 497.208 497.208"><path d="M466.292 240c-33.44 0-64.48-16.608-83.032-44.44l-6.656-9.984-6.656 9.984c-18.552 27.832-49.592 44.44-83.032 44.44h-30.312v128.288c0 31.008 13.96 60.152 37.288 79.712h-165.288v-32h104v-144h-168v64h-48v-320h352v144h16v-160h-384v347.312l116.688 116.688h201.192l58.12 33.208 67.6-38.624c32.32-18.464 52.4-53.072 52.4-90.296v-128.288h-30.312zm-353.688 196.688l-84.688-84.688h84.688v84.688zm-32-100.688v-48h136v112h-88v-64h-48zm400 32.288c0 31.504-16.992 60.776-44.336 76.408l-59.664 34.096-59.664-34.096c-27.344-15.632-44.336-44.904-44.336-76.408v-112.288h14.312c35.04 0 67.808-15.72 89.688-42.544 21.88 26.824 54.648 42.544 89.688 42.544h14.312v112.288zM448.604 320v48.288c0 20.048-10.816 38.68-28.216 48.624l7.936 13.888c22.376-12.784 36.28-36.736 36.28-62.512v-48.288h-16zM48.604 32v48h288v-48h-288zm272 32h-256v-16h256v16zM442.948 274.344l-106.344 106.344-26.344-26.344-11.312 11.312 37.656 37.656 117.656-117.656zM96.604 304h104v16h-104zM144.604 336h56v16h-56zM144.604 368h56v16h-56zM48.604 112h256v16h-256zM48.604 144h256v16h-256zM48.604 176h256v16h-256zM48.604 208h152v16h-152zM48.604 240h152v16h-152zM320.604 112h16v16h-16zM320.604 144h16v16h-16zM320.604 176h16v16h-16zM216.604 208h16v16h-16zM216.604 240h16v16h-16z"/></symbol>
		   <symbol id="email" xmlns="http://www.w3.org/2000/svg" viewBox="0 0 14 14"><g><path d="M7 9l-1.732-1.516-4.952 4.245c.18.167.423.271.691.271h11.986c.267 0 .509-.104.688-.271l-4.949-4.245-1.732 1.516zM13.684 2.271c-.18-.168-.422-.271-.691-.271h-11.986c-.267 0-.509.104-.689.273l6.682 5.727 6.684-5.729zM0 2.878v8.308l4.833-4.107zM9.167 7.079l4.833 4.107v-8.311z"/></g></symbol>
			<symbol id="location" xmlns="http://www.w3.org/2000/svg" viewBox="0 0 80 80"><path d="M40 0c-13.809 0-25 11.194-25 25 0 23.87 25 55 25 55s25-31.13 25-55c0-13.806-11.193-25-25-25zm0 38.8c-7.457 0-13.5-6.044-13.5-13.5s6.043-13.5 13.5-13.5c7.455 0 13.5 6.044 13.5 13.5s-6.045 13.5-13.5 13.5z"/></symbol>
			<symbol id="phone-foot" xmlns="http://www.w3.org/2000/svg" viewBox="0 0 578.106 578.106"><path d="M577.83 456.128c1.225 9.385-1.635 17.545-8.568 24.48l-81.396 80.781c-3.672 4.08-8.465 7.551-14.381 10.404-5.916 2.857-11.729 4.693-17.439 5.508-.408 0-1.635.105-3.676.309-2.037.203-4.689.307-7.953.307-7.754 0-20.301-1.326-37.641-3.979s-38.555-9.182-63.645-19.584c-25.096-10.404-53.553-26.012-85.376-46.818-31.823-20.805-65.688-49.367-101.592-85.68-28.56-28.152-52.224-55.08-70.992-80.783-18.768-25.705-33.864-49.471-45.288-71.299-11.425-21.828-19.993-41.616-25.705-59.364s-9.588-33.048-11.628-45.9-2.856-22.95-2.448-30.294c.408-7.344.612-11.424.612-12.24.816-5.712 2.652-11.526 5.508-17.442s6.324-10.71 10.404-14.382l81.396-81.396c5.712-5.712 12.24-8.568 19.584-8.568 5.304 0 9.996 1.53 14.076 4.59s7.548 6.834 10.404 11.322l65.484 124.236c3.672 6.528 4.692 13.668 3.06 21.42-1.632 7.752-5.1 14.28-10.404 19.584l-29.988 29.988c-.816.816-1.53 2.142-2.142 3.978s-.918 3.366-.918 4.59c1.632 8.568 5.304 18.36 11.016 29.376 4.896 9.792 12.444 21.726 22.644 35.802s24.684 30.293 43.452 48.653c18.36 18.77 34.68 33.354 48.96 43.76 14.277 10.4 26.215 18.053 35.803 22.949 9.588 4.896 16.932 7.854 22.031 8.871l7.648 1.531c.816 0 2.145-.307 3.979-.918 1.836-.613 3.162-1.326 3.979-2.143l34.883-35.496c7.348-6.527 15.912-9.791 25.705-9.791 6.938 0 12.443 1.223 16.523 3.672h.611l118.115 69.768c8.571 5.308 13.67 12.038 15.303 20.198z"/></symbol>
		</defs>
	 </svg>